<?xml version="1.0" encoding="UTF-8"?>
<svg width="79px" height="31px" viewBox="0 0 79 31" version="1.1" xmlns="http://www.w3.org/2000/svg" xmlns:xlink="http://www.w3.org/1999/xlink">
    <!-- Generator: Sketch 47.1 (45422) - http://www.bohemiancoding.com/sketch -->
    <title>Group 5</title>
    <desc>Created with Sketch.</desc>
    <defs></defs>
    <g id="Page-1" stroke="none" stroke-width="1" fill="none" fill-rule="evenodd">
        <g id="Desktop-HD-Copy-10" transform="translate(-129.000000, -36.000000)" fill="#FFFFFF">
            <g id="Group-5" transform="translate(129.000000, 36.000000)">
                <polygon id="Fill-1" points="49.9998187 0 37 31 39.8819976 31 49.9998187 6.52637175 60.1180024 31 63 31"></polygon>
                <polygon id="Fill-2" points="0 2 0 31 14 31 14 28.5289149 2.59684696 28.5289149 2.59684696 16.0175331 14 16.0175331 14 13.5457358 2.59684696 13.5457358 2.59684696 4.4714412 14 4.4714412 14 2"></polygon>
                <path d="M19,25.410761 L21.3433373,24.2320494 C21.7407304,25.6390006 22.4952278,26.7416324 23.5676398,27.5020802 C24.6400517,28.262528 25.9113433,28.6425767 27.4207045,28.6425767 C29.2875364,28.6425767 30.7569751,28.1103684 31.8293871,27.0456012 C32.901799,25.9811846 33.4182269,24.5363687 33.4182269,22.6350739 C33.4182269,21.2663379 33.0607562,20.1254908 32.3458149,19.2128833 C31.6308736,18.3006264 30.1215124,17.2358592 27.7781752,16.0571475 C24.7594528,14.5362519 22.7732199,13.1675159 21.7802865,12.0266688 C20.7873532,10.8861724 20.2709253,9.4792212 20.2709253,7.84438108 C20.2709253,5.82914174 20.9858666,4.19395101 22.4157492,2.90129488 C23.8456318,1.64650337 25.7128299,1 28.0162447,1 C29.4860498,1 30.7968976,1.30431937 31.9088657,1.91260752 C33.0212,2.48303104 33.8947323,3.39563856 34.6100399,4.61221485 L32.5047722,5.82914174 C32.0678229,4.99261406 31.4719164,4.38432592 30.6774965,3.96606208 C29.8830766,3.50958302 28.9300657,3.31955871 27.8576538,3.31955871 C26.3878488,3.31955871 25.1960358,3.73782255 24.3225035,4.536135 C23.448605,5.37266268 23.0512119,6.4752945 23.0512119,7.8822457 C23.0512119,9.89748504 24.7594528,11.7605647 28.2151244,13.4714847 C28.8505871,13.8140193 29.3270925,14.0419082 29.645007,14.1940679 C32.1868577,15.5628039 33.8551761,16.8175954 34.7290747,17.996307 C35.563417,19.2128833 36,20.7341296 36,22.6350739 C36,25.1825215 35.2455025,27.2356255 33.6566627,28.7186565 C32.1077453,30.2395522 29.9629215,31 27.3013035,31 C25.3154368,31 23.6471184,30.5056563 22.2571582,29.5933994 C20.8668318,28.6425767 19.7944199,27.2738407 19,25.410761" id="Fill-3"></path>
                <polygon id="Fill-5" points="68.159837 31 68.159837 4.47141086 60 4.47141086 60 2 79 2 79 4.47141086 70.840163 4.47141086 70.840163 31"></polygon>
            </g>
        </g>
    </g>
</svg>